#!OML:ASF H:\IndianDance\Patient Classification 1\Patient 1\Session 1\dancer.ASF
:FULLY-SPECIFIED
:DEGREES
3490
root -5.02645 15.4637 3.00827 547.565 11.076 -177.353
lowerback -0.863985 3.22497 1.26534
upperback -3.28412 4.42969 -3.7499
thorax -2.50559 2.21752 -4.62788
lowerneck -17.5765 -0.279471 0.682078
upperneck 12.9832 -2.09544 15.8204
head 7.12855 0.929598 4.93014
rclavicle 8.4235e-015 1.90833e-014
rhumerus -14.099 35.1688 -83.1214
rradius 129.1
rwrist -22.4396
rhand -24.4094 11.7161
rfingers 7.12502
rthumb 2.08196 -18.2535
lclavicle 8.4235e-015 1.90833e-014
lhumerus -38.3417 26.5129 69.2904
lradius 20.8026
lwrist -6.62589
lhand -20.074 -345.255
lfingers 7.12502
lthumb 6.26837 404.632
rfemur -9.40284 -6.3114 22.1061
rtibia 50.7164
rfoot 4.66743 13.6224
rtoes 13.0535
lfemur -26.6831 4.51978 -21.2034
ltibia 33.1432
lfoot -14.9698 -6.80775
ltoes 6.48663
3491
root -5.02023 15.4652 2.95351 547.462 11.1804 -177.526
lowerback -0.669401 3.20171 0.970354
upperback -3.23483 4.39622 -3.81029
thorax -2.58345 2.20696 -4.53653
lowerneck -17.5885 -0.25793 0.713676
upperneck 12.9031 -2.06578 15.9229
head 7.10469 0.955933 4.96125
rclavicle 6.1002e-014 -6.52014e-014
rhumerus -12.2924 35.2466 -82.3388
rradius 129.452
rwrist -21.6851
rhand -24.5566 12.0222
rfingers 7.12502
rthumb 1.93978 -17.9487
lclavicle 6.1002e-014 -6.52014e-014
lhumerus -37.9742 25.2145 70.4173
lradius 21.0823
lwrist -10.5221
lhand -17.2306 -347.327
lfingers 7.12502
lthumb 9.01287 402.46
rfemur -10.3994 -6.27449 21.7683
rtibia 52.3305
rfoot 4.72487 13.8159
rtoes 12.2318
lfemur -26.2902 4.57808 -21.3959
ltibia 33.0163
lfoot -15.0389 -6.84446
ltoes 6.84152
3492
root -5.01391 15.4666 2.89972 547.353 11.2783 -177.731
lowerback -0.4755 3.17329 0.650408
upperback -3.18199 4.3549 -3.8693
thorax -2.65965 2.19345 -4.42944
lowerneck -17.5886 -0.233905 0.734955
upperneck 12.8208 -2.02955 16.0212
head 7.07732 0.983224 4.99298
rclavicle -1.85118e-014 2.54444e-014
rhumerus -10.4886 35.305 -81.5887
rradius 129.78
rwrist -20.9969
rhand -24.7248 12.3266
rfingers 7.12502
rthumb 1.77732 -17.6458
lclavicle -1.85118e-014 2.54444e-014
lhumerus -37.5872 23.8184 71.3395
lradius 21.3717
lwrist -14.9425
lhand -14.4287 -349.808
lfingers 7.12502
lthumb 11.7157 399.845
rfemur -11.4031 -6.24114 21.4124
rtibia 53.9002
rfoot 4.44132 13.755
rtoes 10.9516
lfemur -25.8934 4.5774 -21.6186
ltibia 32.8779
lfoot -15.0998 -6.81202
ltoes 7.12087
3493
root -5.00661 15.468 2.84645 547.246 11.3701 -177.938
lowerback -0.290499 3.14189 0.323429
upperback -3.1263 4.30832 -3.91504
thorax -2.72958 2.1777 -4.30373
lowerneck -17.5795 -0.208088 0.745876
upperneck 12.7445 -1.98887 16.1121
head 7.04972 1.01058 5.02424
rclavicle -1.92324e-014 -3.97569e-014
rhumerus -8.70335 35.3441 -80.8848
rradius 130.086
rwrist -20.4031
rhand -24.8496 12.5826
rfingers 7.12502
rthumb 1.65684 -17.3907
lclavicle -1.92324e-014 -3.97569e-014
lhumerus -37.1516 22.2115 72.1623
lradius 21.6943
lwrist -19.2995
lhand -12.1401 -352.487
lfingers 7.12502
lthumb 13.922 397.027
rfemur -12.4079 -6.19874 21.0826
rtibia 55.4029
rfoot 3.84364 13.3656
rtoes 9.3214
lfemur -25.4976 4.52296 -21.8326
ltibia 32.7357
lfoot -15.1579 -6.71329
ltoes 7.33092
3494
root -4.99849 15.4693 2.79332 547.149 11.4555 -178.126
lowerback -0.126181 3.10783 0.0115545
upperback -3.06823 4.25728 -3.94624
thorax -2.78543 2.15955 -4.16964
lowerneck -17.5697 -0.178357 0.758576
upperneck 12.6817 -1.94437 16.193
head 7.02574 1.03922 5.05262
rclavicle -3.13583e-014 -1.11319e-014
rhumerus -6.94195 35.3685 -80.2306
rradius 130.378
rwrist -19.9297
rhand -24.9185 12.748
rfingers 7.12502
rthumb 1.59024 -17.2258
lclavicle -3.13583e-014 -1.11319e-014
lhumerus -36.6439 20.2417 73.0208
lradius 22.0848
lwrist -22.8454
lhand -10.7556 -354.95
lfingers 7.12502
lthumb 15.2559 394.467
rfemur -13.4124 -6.16348 20.7984
rtibia 56.8156
rfoot 2.979 12.6385
rtoes 7.46185
lfemur -25.1136 4.42204 -22.0209
ltibia 32.6021
lfoot -15.2205 -6.55516
ltoes 7.47125
3495
root -4.98989 15.4708 2.73982 547.072 11.5362 -178.281
lowerback 0.00599474 3.07617 -0.264549
upperback -3.00873 4.20904 -3.95811
thorax -2.82007 2.14195 -4.03314
lowerneck -17.555 -0.149138 0.762657
upperneck 12.63 -1.89989 16.2651
head 7.00427 1.06631 5.07959
rclavicle -9.83984e-015 -1.11319e-014
rhumerus -5.22453 35.3748 -79.6358
rradius 130.658
rwrist -19.5728
rhand -24.8868 12.7907
rfingers 7.12502
rthumb 1.62086 -17.1828
lclavicle -9.83984e-015 -1.11319e-014
lhumerus -36.0768 17.8034 74.0395
lradius 22.5685
lwrist -24.9936
lhand -10.3962 -356.766
lfingers 7.12502
lthumb 15.6021 392.625
rfemur -14.4187 -6.13289 20.5746
rtibia 58.1172
rfoot 1.93546 11.5779
rtoes 5.65313
lfemur -24.752 4.28539 -22.1704
ltibia 32.4883
lfoot -15.2937 -6.34786
ltoes 7.56026
3496
root -4.98125 15.4724 2.68554 547.018 11.6155 -178.387
lowerback 0.105114 3.04926 -0.4869
upperback -2.94968 4.1671 -3.94791
thorax -2.8337 2.12598 -3.90155
lowerneck -17.5406 -0.121171 0.766273
upperneck 12.594 -1.85877 16.3266
head 6.98794 1.09126 5.10314
rclavicle -6.19214e-014 -8.5875e-014
rhumerus -3.56359 35.3605 -79.0853
rradius 130.932
rwrist -19.3169
rhand -24.7489 12.7076
rfingers 7.12502
rthumb 1.75408 -17.265
lclavicle -6.19214e-014 -8.5875e-014
lhumerus -35.5072 14.7616 75.3148
lradius 23.1939
lwrist -25.3243
lhand -10.9989 -357.64
lfingers 7.12502
lthumb 15.0216 391.795
rfemur -15.4226 -6.11839 20.4269
rtibia 59.2907
rfoot 0.776452 10.2162
rtoes 4.00228
lfemur -24.4163 4.11874 -22.266
ltibia 32.4032
lfoot -15.3796 -6.0995
ltoes 7.63152
3497
root -4.97283 15.4743 2.63063 546.989 11.6873 -178.435
lowerback 0.177063 3.02478 -0.64417
upperback -2.89554 4.12856 -3.9154
thorax -2.83373 2.10971 -3.78155
lowerneck -17.5273 -0.094125 0.774394
upperneck 12.5807 -1.82239 16.3778
head 6.97928 1.11435 5.12267
rclavicle 3.36443e-014 -2.38542e-014
rhumerus -1.9786 35.3304 -78.6014
rradius 131.192
rwrist -19.0997
rhand -24.5182 12.5036
rfingers 7.12502
rthumb 1.9769 -17.467
lclavicle 3.36443e-014 -2.38542e-014
lhumerus -35.0164 11.2389 76.7754
lradius 23.9724
lwrist -23.9455
lhand -12.307 -357.599
lfingers 7.12502
lthumb 13.7611 391.926
rfemur -16.4232 -6.1197 20.3638
rtibia 60.3252
rfoot -0.411261 8.60766
rtoes 2.75217
lfemur -24.113 3.93944 -22.3019
ltibia 32.352
lfoot -15.4789 -5.83109
ltoes 7.65882
3498
root -4.96473 15.4764 2.57509 546.985 11.7504 -178.424
lowerback 0.227337 3.00208 -0.738273
upperback -2.84646 4.0924 -3.85764
thorax -2.82391 2.09258 -3.66944
lowerneck -17.5202 -0.0678213 0.790609
upperneck 12.5934 -1.79181 16.414
head 6.98026 1.13509 5.13608
rclavicle -4.38817e-014 -1.59028e-014
rhumerus -0.463229 35.2957 -78.1472
rradius 131.444
rwrist -18.9084
rhand -24.221 12.1969
rfingers 7.12502
rthumb 2.26397 -17.7708
lclavicle -4.38817e-014 -1.59028e-014
lhumerus -34.673 7.42284 78.3137
lradius 24.9115
lwrist -21.2699
lhand -14.033 -356.859
lfingers 7.12502
lthumb 12.0972 392.771
rfemur -17.4159 -6.13197 20.385
rtibia 61.2156
rfoot -1.56521 6.8351
rtoes 2.03858
lfemur -23.8403 3.75902 -22.2773
ltibia 32.3359
lfoot -15.592 -5.56135
ltoes 7.66562
3499
root -4.95687 15.4785 2.5193 547.002 11.7998 -178.362
lowerback 0.26629 2.98162 -0.782724
upperback -2.80462 4.05903 -3.77658
thorax -2.81313 2.07517 -3.56055
lowerneck -17.5148 -0.0466056 0.80412
upperneck 12.6261 -1.77037 16.4437
head 6.98865 1.15178 5.14751
rclavicle -3.44394e-014 -6.52014e-014
rhumerus 0.962815 35.2455 -77.7264
rradius 131.682
rwrist -18.6969
rhand -23.8737 11.8334
rfingers 7.12502
rthumb 2.59936 -18.1305
lclavicle -3.44394e-014 -6.52014e-014
lhumerus -34.5035 3.5566 79.8068
lradius 25.9873
lwrist -17.9328
lhand -15.9428 -355.709
lfingers 7.12502
lthumb 10.2553 394.021
rfemur -18.4014 -6.15374 20.481
rtibia 61.9629
rfoot -2.65894 4.96881
rtoes 1.73987
lfemur -23.5982 3.58801 -22.2031
ltibia 32.3522
lfoot -15.7164 -5.30951
ltoes 7.65329
3500
root -4.94961 15.4806 2.46354 547.032 11.8314 -178.269
lowerback 0.300071 2.96033 -0.786435
upperback -2.76911 4.02462 -3.68148
thorax -2.80415 2.056 -3.45979
lowerneck -17.5072 -0.0292516 0.820086
upperneck 12.675 -1.75646 16.469
head 7.00246 1.16547 5.15671
rclavicle 6.55989e-015 4.77083e-015
rhumerus 2.30171 35.1836 -77.356
rradius 131.895
rwrist -18.4377
rhand -23.5566 11.4634
rfingers 7.12502
rthumb 2.90557 -18.4965
lclavicle 6.55989e-015 4.77083e-015
lhumerus -34.4864 -0.122961 81.1378
lradius 27.1403
lwrist -14.5884
lhand -17.8434 -354.401
lfingers 7.12502
lthumb 8.42143 395.411
rfemur -19.378 -6.18248 20.6238
rtibia 62.5734
rfoot -3.66785 3.08799
rtoes 1.89837
lfemur -23.3806 3.42569 -22.0999
ltibia 32.395
lfoot -15.8528 -5.07897
ltoes 7.60178
3501
root -4.94291 15.4825 2.40815 547.076 11.838 -178.166
lowerback 0.32709 2.93331 -0.767016
upperback -2.73655 3.9831 -3.58224
thorax -2.79338 2.03273 -3.36723
lowerneck -17.507 -0.0153195 0.84412
upperneck 12.7392 -1.75092 16.4889
head 7.02314 1.17646 5.1626
rclavicle 3.63279e-014 4.45278e-014
rhumerus 3.56923 35.1203 -77.0186
rradius 132.079
rwrist -18.1137
rhand -23.2528 11.1152
rfingers 7.12502
rthumb 3.19901 -18.8406
lclavicle 3.63279e-014 4.45278e-014
lhumerus -34.5573 -3.45046 82.2351
lradius 28.2936
lwrist -11.7362
lhand -19.5763 -353.115
lfingers 7.12502
lthumb 6.74881 396.757
rfemur -20.3518 -6.22251 20.7877
rtibia 63.0568
rfoot -4.5928 1.26871
rtoes 2.41287
lfemur -23.1901 3.26942 -21.9909
ltibia 32.4566
lfoot -15.9975 -4.87678
ltoes 7.50265
3502
root -4.93656 15.4839 2.3534 547.126 11.8191 -178.065
lowerback 0.353822 2.8985 -0.733296
upperback -2.70592 3.93167 -3.48469
thorax -2.78378 2.00427 -3.28426
lowerneck -17.5079 -0.0032093 0.875294
upperneck 12.8126 -1.75032 16.5095
head 7.04747 1.18654 5.16743
rclavicle 3.36443e-014 1.90833e-014
rhumerus 4.76523 35.0591 -76.7203
rradius 132.229
rwrist -17.7291
rhand -23.0804 10.8449
rfingers 7.12502
rthumb 3.36547 -19.1083
lclavicle 3.36443e-014 1.90833e-014
lhumerus -34.6647 -6.36554 83.0711
lradius 29.3896
lwrist -9.66215
lhand -21.0591 -351.939
lfingers 7.12502
lthumb 5.31725 397.975
rfemur -21.3209 -6.26813 20.9599
rtibia 63.4232
rfoot -5.43427 -0.436873
rtoes 3.31179
lfemur -23.0197 3.13033 -21.8886
ltibia 32.5299
lfoot -16.149 -4.70963
ltoes 7.3211
3503
root -4.93044 15.4847 2.29934 547.176 11.7761 -177.984
lowerback 0.383073 2.85141 -0.705271
upperback -2.67748 3.86437 -3.3961
thorax -2.77828 1.96828 -3.20731
lowerneck -17.5084 0.0104662 0.921963
upperneck 12.8938 -1.75114 16.5316
head 7.07443 1.198 5.17038
rclavicle -2.29596e-014 6.36111e-014
rhumerus 5.89681 34.9949 -76.4557
rradius 132.358
rwrist -17.3596
rhand -22.9134 10.6193
rfingers 7.12502
rthumb 3.52673 -19.3313
lclavicle -2.29596e-014 6.36111e-014
lhumerus -34.7708 -8.87555 83.6529
lradius 30.3992
lwrist -8.37678
lhand -22.2567 -350.92
lfingers 7.12502
lthumb 4.16087 399.019
rfemur -22.2866 -6.31542 21.1182
rtibia 63.6826
rfoot -6.20207 -1.98494
rtoes 4.5494
lfemur -22.8645 2.99373 -21.8091
ltibia 32.6101
lfoot -16.3029 -4.57152
ltoes 7.1044
3504
root -4.92437 15.4847 2.24603 547.224 11.7106 -177.931
lowerback 0.417039 2.79954 -0.692842
upperback -2.64817 3.79097 -3.31697
thorax -2.77507 1.92984 -3.13155
lowerneck -17.5171 0.0187329 0.970435
upperneck 12.9794 -1.76083 16.5565
head 7.10518 1.20659 5.17346
rclavicle 4.67144e-015 -3.33958e-014
rhumerus 6.96263 34.9185 -76.2104
rradius 132.463
rwrist -17.013
rhand -22.8555 10.4482
rfingers 7.12502
rthumb 3.58267 -19.5014
lclavicle 4.67144e-015 -3.33958e-014
lhumerus -34.8541 -11.064 84.0417
lradius 31.3283
lwrist -7.68788
lhand -23.2685 -350.027
lfingers 7.12502
lthumb 3.18378 399.929
rfemur -23.2495 -6.3705 21.2537
rtibia 63.8433
rfoot -6.90476 -3.35286
rtoes 5.95118
lfemur -22.7231 2.85989 -21.7609
ltibia 32.696
lfoot -16.459 -4.45599
ltoes 6.83379
